<svg width="12" height="12" viewBox="0 0 12 12" fill="none" xmlns="http://www.w3.org/2000/svg">
<g id="star" clip-path="url(#clip0_119_3262)">
<path id="Vector" d="M9.44962 11.5996C9.36542 11.5999 9.28327 11.5737 9.21485 11.5246L5.99938 9.19345L2.7839 11.5246C2.7152 11.5744 2.63244 11.6011 2.54757 11.6008C2.46271 11.6005 2.38015 11.5732 2.31181 11.5229C2.24348 11.4726 2.19292 11.4018 2.16745 11.3209C2.14197 11.2399 2.1429 11.153 2.1701 11.0726L3.42419 7.35806L0.173961 5.12916C0.103559 5.08093 0.0504236 5.01145 0.0223183 4.93088C-0.00578693 4.85031 -0.00738897 4.76285 0.0177463 4.6813C0.0428816 4.59975 0.0934369 4.52838 0.162026 4.47761C0.230614 4.42684 0.313642 4.39933 0.398977 4.3991H4.40876L5.61885 0.675089C5.64492 0.594689 5.69578 0.524611 5.76414 0.47491C5.83251 0.425209 5.91486 0.398438 5.99938 0.398438C6.0839 0.398438 6.16625 0.425209 6.23461 0.47491C6.30297 0.524611 6.35384 0.594689 6.3799 0.675089L7.58999 4.40035H11.5998C11.6852 4.40031 11.7684 4.42763 11.8372 4.4783C11.906 4.52898 11.9568 4.60035 11.9821 4.68196C12.0074 4.76357 12.0059 4.85114 11.9778 4.93184C11.9497 5.01253 11.8965 5.08212 11.826 5.13041L8.57456 7.35806L9.8279 11.0716C9.84821 11.1317 9.85392 11.1958 9.84456 11.2586C9.83521 11.3213 9.81105 11.381 9.7741 11.4326C9.73714 11.4841 9.68844 11.5262 9.63202 11.5552C9.5756 11.5843 9.51308 11.5995 9.44962 11.5996Z" fill="#74DB0D"/>
</g>
<defs>
<clipPath id="clip0_119_3262">
<rect width="12" height="12" fill="white"/>
</clipPath>
</defs>
</svg>
